<svg width="89" height="89" viewBox="0 0 89 89" fill="none" xmlns="http://www.w3.org/2000/svg">
<circle cx="44.5" cy="44.5" r="44.5" fill="#0061FF"/>
<mask id="mask0_282_342" style="mask-type:alpha" maskUnits="userSpaceOnUse" x="7" y="7" width="75" height="75">
<circle cx="44.5" cy="44.5" r="37.5" fill="#0061FF"/>
</mask>
<g mask="url(#mask0_282_342)">
<rect x="-48" y="7" width="153.371" height="101.966" fill="#0061FF"/>
</g>
<path fill-rule="evenodd" clip-rule="evenodd" d="M37 34C37 31.8783 37.8429 29.8434 39.3431 28.3431C40.8434 26.8429 42.8783 26 45 26C47.1217 26 49.1566 26.8429 50.6569 28.3431C52.1571 29.8434 53 31.8783 53 34C53 36.1217 52.1571 38.1566 50.6569 39.6569C49.1566 41.1571 47.1217 42 45 42C42.8783 42 40.8434 41.1571 39.3431 39.6569C37.8429 38.1566 37 36.1217 37 34ZM37 46C34.3478 46 31.8043 47.0536 29.9289 48.9289C28.0536 50.8043 27 53.3478 27 56C27 57.5913 27.6321 59.1174 28.7574 60.2426C29.8826 61.3679 31.4087 62 33 62H57C58.5913 62 60.1174 61.3679 61.2426 60.2426C62.3679 59.1174 63 57.5913 63 56C63 53.3478 61.9464 50.8043 60.0711 48.9289C58.1957 47.0536 55.6522 46 53 46H37Z" fill="white"/>
</svg>
