<svg width="38" height="38" viewBox="0 0 38 38" fill="none" xmlns="http://www.w3.org/2000/svg">
<path fill-rule="evenodd" clip-rule="evenodd" d="M19.9389 36.8251L19.9215 36.8283L19.8091 36.8837L19.7774 36.89L19.7553 36.8837L19.6429 36.8283C19.626 36.823 19.6133 36.8256 19.6049 36.8362L19.5985 36.852L19.5716 37.5297L19.5795 37.5614L19.5954 37.5819L19.76 37.6991L19.7838 37.7054L19.8028 37.6991L19.9674 37.5819L19.9864 37.5566L19.9928 37.5297L19.9659 36.8536C19.9616 36.8367 19.9527 36.8272 19.9389 36.8251ZM20.3585 36.6462L20.3379 36.6494L20.045 36.7966L20.0292 36.8124L20.0244 36.8299L20.0529 37.5107L20.0609 37.5297L20.0735 37.5408L20.3918 37.688C20.4118 37.6933 20.4271 37.6891 20.4377 37.6754L20.444 37.6532L20.3902 36.681C20.3849 36.662 20.3744 36.6504 20.3585 36.6462ZM19.2264 36.6494C19.2195 36.6451 19.2111 36.6438 19.2032 36.6455C19.1952 36.6473 19.1882 36.6521 19.1837 36.6589L19.1742 36.681L19.1204 37.6532C19.1214 37.6722 19.1304 37.6849 19.1473 37.6912L19.171 37.688L19.4893 37.5408L19.5051 37.5281L19.5114 37.5107L19.5384 36.8299L19.5336 36.8109L19.5178 36.795L19.2264 36.6494Z" fill="#808080" fill-opacity="0.8"/>
<path fill-rule="evenodd" clip-rule="evenodd" d="M3.95825 14.25C3.95766 13.6756 4.16526 13.1205 4.54258 12.6874C4.91991 12.2543 5.4414 11.9727 6.01047 11.8946C6.57953 11.8165 7.15761 11.9473 7.63762 12.2628C8.11763 12.5783 8.46706 13.057 8.62117 13.6103C11.7039 23.9052 26.288 23.9068 29.3771 13.6183C29.4639 13.3174 29.6093 13.0366 29.8051 12.7921C30.0008 12.5477 30.243 12.3443 30.5176 12.1938C30.7922 12.0433 31.0939 11.9486 31.4053 11.9151C31.7167 11.8817 32.0316 11.9101 32.332 11.9989C32.6323 12.0876 32.9121 12.2349 33.1553 12.4322C33.3985 12.6295 33.6003 12.8729 33.7491 13.1485C33.8978 13.4241 33.9906 13.7264 34.022 14.038C34.0535 14.3496 34.023 14.6643 33.9323 14.9641C33.3913 16.8128 32.5208 18.5486 31.3626 20.0878L32.8826 21.6078C33.1093 21.8269 33.2901 22.0891 33.4145 22.3789C33.5388 22.6687 33.6042 22.9804 33.6067 23.2958C33.6093 23.6111 33.5491 23.9238 33.4295 24.2156C33.31 24.5075 33.1335 24.7726 32.9104 24.9954C32.6873 25.2183 32.4221 25.3946 32.1301 25.5138C31.8382 25.6331 31.5254 25.6931 31.2101 25.6902C30.8947 25.6873 30.5831 25.6216 30.2934 25.497C30.0037 25.3724 29.7417 25.1914 29.5228 24.9644L27.9236 23.3653C27.0924 23.9346 26.2066 24.4199 25.2794 24.814L25.6642 26.2485C25.8101 26.8511 25.7147 27.4868 25.3982 28.0199C25.0817 28.5531 24.5693 28.9413 23.9704 29.1017C23.3716 29.2622 22.7337 29.182 22.1931 28.8785C21.6525 28.5749 21.252 28.072 21.0773 27.4772L20.6798 25.9968C19.5636 26.1123 18.4363 26.1123 17.32 25.9968L16.9242 27.4772C16.7612 28.0856 16.3633 28.6045 15.8178 28.9195C15.2723 29.2346 14.6241 29.32 14.0156 29.1571C13.4071 28.9942 12.8883 28.5962 12.5732 28.0507C12.2582 27.5053 12.1727 26.857 12.3357 26.2485L12.7188 24.8124C11.7922 24.4187 10.907 23.934 10.0763 23.3653L8.47709 24.9644C8.25811 25.1914 7.99612 25.3724 7.70642 25.497C7.41672 25.6216 7.10511 25.6873 6.78976 25.6902C6.47441 25.6931 6.16165 25.6331 5.86971 25.5138C5.57778 25.3946 5.31252 25.2183 5.08942 24.9954C4.86632 24.7726 4.68985 24.5075 4.57029 24.2156C4.45074 23.9238 4.3905 23.6111 4.39309 23.2958C4.39568 22.9804 4.46105 22.6687 4.58538 22.3789C4.70972 22.0891 4.89052 21.8269 5.11725 21.6078L6.63725 20.0878C5.48178 18.5511 4.61287 16.8186 4.07225 14.9736C3.99706 14.7397 3.95861 14.4956 3.95825 14.25Z" fill="#808080" fill-opacity="0.8"/>
</svg>
