<svg width="61" height="50" viewBox="0 0 61 50" fill="none" xmlns="http://www.w3.org/2000/svg">
<rect width="61" height="50" rx="20" fill="#0061FF" fill-opacity="0.2"/>
<path d="M20.7941 10C19.8581 10 18.9603 10.4515 18.2984 11.2553C17.6366 12.059 17.2647 13.1491 17.2647 14.2857V21.265C18.3003 20.2266 19.5021 19.4604 20.7941 19.015V10ZM41.9706 35.7143H32.0882C32.7659 34.1071 33.1471 32.2857 33.1471 30.3571C33.1471 28.4286 32.7659 26.6071 32.0882 25H37.5588C38.2609 25 38.9342 24.6614 39.4306 24.0586C39.927 23.4558 40.2059 22.6382 40.2059 21.7857V19.6429C40.2059 18.7904 39.927 17.9728 39.4306 17.37C38.9342 16.7672 38.2609 16.4286 37.5588 16.4286H30.5C29.798 16.4286 29.1247 16.7672 28.6282 17.37C28.1318 17.9728 27.8529 18.7904 27.8529 19.6429V19.8571C26.22 18.8455 24.3844 18.416 22.5588 18.6186V10H41.9706C42.9066 10 43.8044 10.4515 44.4663 11.2553C45.1282 12.059 45.5 13.1491 45.5 14.2857V31.4286C45.5 32.5652 45.1282 33.6553 44.4663 34.459C43.8044 35.2628 42.9066 35.7143 41.9706 35.7143ZM37.5588 22.8571H30.9288C30.5346 22.2768 30.0955 21.7437 29.6176 21.265V19.6429C29.6176 19.3587 29.7106 19.0862 29.8761 18.8852C30.0416 18.6843 30.266 18.5714 30.5 18.5714H37.5588C37.7928 18.5714 38.0173 18.6843 38.1827 18.8852C38.3482 19.0862 38.4412 19.3587 38.4412 19.6429V21.7857C38.4412 22.0699 38.3482 22.3424 38.1827 22.5433C38.0173 22.7443 37.7928 22.8571 37.5588 22.8571ZM31.3824 30.3571C31.3824 32.9146 30.5457 35.3673 29.0564 37.1757C27.5672 38.9841 25.5473 40 23.4412 40C21.335 40 19.3152 38.9841 17.8259 37.1757C16.3367 35.3673 15.5 32.9146 15.5 30.3571C15.5 27.7997 16.3367 25.347 17.8259 23.5386C19.3152 21.7302 21.335 20.7143 23.4412 20.7143C25.5473 20.7143 27.5672 21.7302 29.0564 23.5386C30.5457 25.347 31.3824 27.7997 31.3824 30.3571ZM24.3235 26.0714C24.3235 25.7873 24.2306 25.5147 24.0651 25.3138C23.8996 25.1129 23.6752 25 23.4412 25C23.2072 25 22.9827 25.1129 22.8173 25.3138C22.6518 25.5147 22.5588 25.7873 22.5588 26.0714V29.2857H19.9118C19.6778 29.2857 19.4533 29.3986 19.2878 29.5995C19.1224 29.8005 19.0294 30.073 19.0294 30.3571C19.0294 30.6413 19.1224 30.9138 19.2878 31.1148C19.4533 31.3157 19.6778 31.4286 19.9118 31.4286H22.5588V34.6429C22.5588 34.927 22.6518 35.1995 22.8173 35.4005C22.9827 35.6014 23.2072 35.7143 23.4412 35.7143C23.6752 35.7143 23.8996 35.6014 24.0651 35.4005C24.2306 35.1995 24.3235 34.927 24.3235 34.6429V31.4286H26.9706C27.2046 31.4286 27.429 31.3157 27.5945 31.1148C27.76 30.9138 27.8529 30.6413 27.8529 30.3571C27.8529 30.073 27.76 29.8005 27.5945 29.5995C27.429 29.3986 27.2046 29.2857 26.9706 29.2857H24.3235V26.0714Z" fill="#0061FF"/>
</svg>
