<svg width="61" height="50" viewBox="0 0 61 50" fill="none" xmlns="http://www.w3.org/2000/svg">
<rect width="61" height="50" rx="20" fill="#0061FF" fill-opacity="0.2"/>
<path d="M15.5 16.6667C15.5 15.5616 15.8951 14.5018 16.5983 13.7204C17.3016 12.939 18.2554 12.5 19.25 12.5V37.5C18.2554 37.5 17.3016 37.061 16.5983 36.2796C15.8951 35.4982 15.5 34.4384 15.5 33.3333V16.6667ZM28.625 21.875C28.625 21.5987 28.7238 21.3338 28.8996 21.1384C29.0754 20.9431 29.3139 20.8333 29.5625 20.8333H37.0625C37.3111 20.8333 37.5496 20.9431 37.7254 21.1384C37.9012 21.3338 38 21.5987 38 21.875V23.9583C38 24.2346 37.9012 24.4996 37.7254 24.6949C37.5496 24.8903 37.3111 25 37.0625 25H29.5625C29.3139 25 29.0754 24.8903 28.8996 24.6949C28.7238 24.4996 28.625 24.2346 28.625 23.9583V21.875ZM21.125 37.5V12.5H41.75C42.7446 12.5 43.6984 12.939 44.4016 13.7204C45.1049 14.5018 45.5 15.5616 45.5 16.6667V33.3333C45.5 34.4384 45.1049 35.4982 44.4016 36.2796C43.6984 37.061 42.7446 37.5 41.75 37.5H21.125ZM29.5625 18.75C28.8166 18.75 28.1012 19.0792 27.5738 19.6653C27.0463 20.2513 26.75 21.0462 26.75 21.875V23.9583C26.75 24.7871 27.0463 25.582 27.5738 26.168C28.1012 26.7541 28.8166 27.0833 29.5625 27.0833H37.0625C37.8084 27.0833 38.5238 26.7541 39.0512 26.168C39.5787 25.582 39.875 24.7871 39.875 23.9583V21.875C39.875 21.0462 39.5787 20.2513 39.0512 19.6653C38.5238 19.0792 37.8084 18.75 37.0625 18.75H29.5625Z" fill="#0061FF"/>
</svg>
