<svg width="61" height="50" viewBox="0 0 61 50" fill="none" xmlns="http://www.w3.org/2000/svg">
<rect width="61" height="50" rx="20" fill="white"/>
<path d="M40.7632 12.8874C41.6007 12.8874 42.4039 13.2064 42.9961 13.7743C43.5883 14.3422 43.9211 15.1124 43.9211 15.9155V17.4296H34.4474C32.3536 17.4296 30.3455 18.2272 28.8649 19.6469C27.3844 21.0666 26.5526 22.9922 26.5526 25C26.5526 27.0078 27.3844 28.9334 28.8649 30.3531C30.3455 31.7728 32.3536 32.5704 34.4474 32.5704H43.9211V34.0845C43.9211 34.8876 43.5883 35.6578 42.9961 36.2257C42.4039 36.7936 41.6007 37.1126 40.7632 37.1126H18.6579C17.8204 37.1126 17.0171 36.7936 16.4249 36.2257C15.8327 35.6578 15.5 34.8876 15.5 34.0845V15.9155C15.5 15.1124 15.8327 14.3422 16.4249 13.7743C17.0171 13.2064 17.8204 12.8874 18.6579 12.8874H40.7632ZM42.3421 20.4578C43.1796 20.4578 43.9829 20.7768 44.5751 21.3447C45.1673 21.9126 45.5 22.6828 45.5 23.4859V26.5141C45.5 27.3172 45.1673 28.0874 44.5751 28.6553C43.9829 29.2232 43.1796 29.5422 42.3421 29.5422H34.4474C33.1911 29.5422 31.9862 29.0637 31.0979 28.2119C30.2096 27.36 29.7105 26.2047 29.7105 25C29.7105 23.7953 30.2096 22.64 31.0979 21.7881C31.9862 20.9363 33.1911 20.4578 34.4474 20.4578H42.3421ZM34.4474 23.4859C34.0286 23.4859 33.627 23.6454 33.3309 23.9294C33.0348 24.2133 32.8684 24.5984 32.8684 25C32.8684 25.4016 33.0348 25.7867 33.3309 26.0706C33.627 26.3546 34.0286 26.5141 34.4474 26.5141C34.8661 26.5141 35.2677 26.3546 35.5639 26.0706C35.86 25.7867 36.0263 25.4016 36.0263 25C36.0263 24.5984 35.86 24.2133 35.5639 23.9294C35.2677 23.6454 34.8661 23.4859 34.4474 23.4859Z" fill="#0061FF" fill-opacity="0.8"/>
</svg>
